<svg width="52" height="70" viewBox="0 0 52 70" fill="none" xmlns="http://www.w3.org/2000/svg">
<path d="M28 50C28 48.8954 27.1046 48 26 48C24.8954 48 24 48.8954 24 50V68C24 69.1046 24.8954 70 26 70C27.1046 70 28 69.1046 28 68V50Z" fill="#E7EEC2"/>
<path d="M26 52C40.3594 52 52 40.3594 52 26C52 11.6406 40.3594 0 26 0C11.6406 0 0 11.6406 0 26C0 40.3594 11.6406 52 26 52Z" fill="#F8FFD0"/>
<path fill-rule="evenodd" clip-rule="evenodd" d="M19 16H20C20 15.4477 20.4477 15 21 15C21.5523 15 22 15.4477 22 16H30C30 15.4477 30.4477 15 31 15C31.5523 15 32 15.4477 32 16H33C35.2091 16 37 17.7909 37 20V33C37 35.2091 35.2091 37 33 37H26V35H29H33C34.1046 35 35 34.1046 35 33V20C35 18.8954 34.1046 18 33 18H32C32 18.5523 31.5523 19 31 19C30.4477 19 30 18.5523 30 18H22C22 18.5523 21.5523 19 21 19C20.4477 19 20 18.5523 20 18H19C17.8954 18 17 18.8954 17 20V21H35V23H17V33C17 34.1046 17.8954 35 19 35H26L25.6795 31.1748C25.8407 31.0841 25.9476 31.0388 26 31.0388C26.0524 31.0388 26.158 31.0841 26.3167 31.1748L27.812 31.9544C27.898 32.0033 27.9597 32.0312 27.9971 32.0381C28.0691 32.0514 28.1341 32.0328 28.1826 31.9957C28.2688 31.9299 28.2946 31.8341 28.2601 31.7083L27.9295 29.7395C27.9297 29.6895 27.9337 29.6527 27.9415 29.6292C27.9492 29.6056 27.9678 29.5743 27.9971 29.535L29.4493 28.1121C29.5285 28.0305 29.5528 27.9449 29.5222 27.8555C29.4916 27.7661 29.4356 27.7135 29.354 27.6976L27.2999 27.3922C27.2468 27.3764 27.2095 27.3597 27.188 27.342C27.1664 27.3242 27.1419 27.2901 27.1144 27.2396L26.259 25.5184C26.24 25.4817 26.2274 25.4571 26.2211 25.4445C26.1683 25.3375 26.1027 25.2962 26 25.2962C25.8792 25.2962 25.7944 25.3703 25.7458 25.5184L24.896 27.2181C24.8644 27.2825 24.8362 27.325 24.8114 27.3455C24.7866 27.366 24.7447 27.3816 24.6856 27.3922L22.6429 27.6976C22.5907 27.719 22.5569 27.7367 22.5414 27.7506C22.485 27.8014 22.4731 27.8552 22.4679 27.8786C22.4499 27.9608 22.4768 28.0387 22.5488 28.1121L23.9893 29.5202C24.025 29.5605 24.0475 29.5931 24.0567 29.6182C24.0658 29.6433 24.0701 29.6838 24.0695 29.7395L23.7263 31.7761C23.727 31.8272 23.7302 31.8624 23.7362 31.8816C23.7547 31.9413 23.7899 31.9747 23.8065 31.9883C23.84 32.0155 23.8957 32.0388 23.9532 32.0421C23.974 32.0432 24.0054 32.0388 24.0473 32.0287L25.6795 31.1748L26 35V37H19C16.7909 37 15 35.2091 15 33V20C15 17.7909 16.7909 16 19 16Z" fill="black"/>
</svg>
