<svg width="158" height="158" viewBox="0 0 158 158" fill="none" xmlns="http://www.w3.org/2000/svg">
<path fill-rule="evenodd" clip-rule="evenodd" d="M77.3733 98.0278C77.3768 97.7931 77.4376 97.5628 77.5504 97.357L78.8346 95.0144C78.9712 94.7651 79.3293 94.7651 79.4659 95.0144L80.7501 97.357C80.8629 97.5628 80.9237 97.7931 80.9272 98.0278L81.6306 145.431H76.6699L77.3733 98.0278Z" fill="white"/>
<path fill-rule="evenodd" clip-rule="evenodd" d="M75.252 145.386C75.252 145.206 75.3836 145.054 75.5619 145.031C76.2898 144.937 78.1243 144.713 79.1496 144.713C80.1749 144.713 82.0094 144.937 82.7373 145.031C82.9156 145.054 83.0473 145.206 83.0473 145.386V146.195C83.0473 146.375 82.9156 146.527 82.7373 146.55C82.0094 146.644 80.1749 146.868 79.1496 146.868C78.1243 146.868 76.2898 146.644 75.5619 146.55C75.3836 146.527 75.252 146.375 75.252 146.195V145.386Z" fill="white"/>
<path fill-rule="evenodd" clip-rule="evenodd" d="M77.7324 146.15H80.5671L80.2127 154.768H78.0868L77.7324 146.15Z" fill="white"/>
<path fill-rule="evenodd" clip-rule="evenodd" d="M76.5346 154.942C76.4226 154.488 76.7662 154.05 77.2336 154.05H81.0646C81.5321 154.05 81.8756 154.488 81.7636 154.942L81.4333 156.282C81.3328 156.689 81.06 157.032 80.6861 157.221L80.1255 157.505C79.5117 157.816 78.7865 157.816 78.1728 157.505L77.6122 157.221C77.2382 157.032 76.9654 156.689 76.865 156.282L76.5346 154.942Z" fill="white"/>
<path fill-rule="evenodd" clip-rule="evenodd" d="M82.1299 97.6497C82.0725 97.4221 82.0716 97.184 82.1273 96.9559L82.7614 94.3608C82.8289 94.0846 83.1748 93.9919 83.3713 94.1973L85.218 96.1278C85.3803 96.2974 85.4986 96.5041 85.5627 96.7299L98.5111 142.336L93.7194 143.62L82.1299 97.6497Z" fill="white"/>
<path fill-rule="evenodd" clip-rule="evenodd" d="M92.3382 143.943C92.2917 143.769 92.3795 143.588 92.5457 143.52C93.2244 143.24 94.9385 142.55 95.9289 142.284C96.9193 142.019 98.7491 141.76 99.4767 141.663C99.6548 141.639 99.8213 141.752 99.8679 141.925L100.077 142.707C100.124 142.88 100.036 143.061 99.8697 143.13C99.191 143.409 97.4769 144.1 96.4866 144.365C95.4962 144.631 93.6663 144.89 92.9388 144.987C92.7606 145.011 92.5941 144.898 92.5476 144.724L92.3382 143.943Z" fill="white"/>
<path fill-rule="evenodd" clip-rule="evenodd" d="M94.9316 144.039L97.6697 143.305L99.5581 151.721L97.5045 152.272L94.9316 144.039Z" fill="white"/>
<path fill-rule="evenodd" clip-rule="evenodd" d="M96.051 152.842C95.8254 152.432 96.0437 151.92 96.4953 151.799L100.196 150.807C100.647 150.686 101.093 151.021 101.102 151.488L101.129 152.867C101.138 153.287 100.963 153.689 100.651 153.968L100.183 154.388C99.6706 154.847 98.9701 155.035 98.2967 154.893L97.6817 154.764C97.2714 154.678 96.9191 154.417 96.7168 154.05L96.051 152.842Z" fill="white"/>
<path fill-rule="evenodd" clip-rule="evenodd" d="M72.7367 96.7296C72.8008 96.5038 72.9192 96.2971 73.0814 96.1275L74.9282 94.1971C75.1247 93.9917 75.4705 94.0843 75.538 94.3605L76.1721 96.9557C76.2278 97.1837 76.2269 97.4219 76.1696 97.6495L64.58 143.62L59.7884 142.336L72.7367 96.7296Z" fill="white"/>
<path fill-rule="evenodd" clip-rule="evenodd" d="M58.4313 141.925C58.4779 141.752 58.6444 141.639 58.8226 141.663C59.5501 141.76 61.3799 142.019 62.3703 142.284C63.3607 142.55 65.0748 143.24 65.7535 143.52C65.9197 143.588 66.0076 143.769 65.961 143.943L65.7516 144.724C65.7051 144.898 65.5386 145.011 65.3604 144.987C64.6329 144.89 62.803 144.631 61.8126 144.365C60.8223 144.1 59.1082 143.409 58.4295 143.13C58.2632 143.061 58.1754 142.88 58.2219 142.707L58.4313 141.925Z" fill="white"/>
<path fill-rule="evenodd" clip-rule="evenodd" d="M60.6289 143.305L63.367 144.039L60.7941 152.272L58.7405 151.722L60.6289 143.305Z" fill="white"/>
<path fill-rule="evenodd" clip-rule="evenodd" d="M57.1965 151.488C57.2058 151.021 57.6512 150.686 58.1027 150.807L61.8031 151.799C62.2547 151.92 62.473 152.432 62.2474 152.842L61.5816 154.05C61.3793 154.417 61.027 154.678 60.6167 154.764L60.0017 154.893C59.3283 155.035 58.6278 154.847 58.1155 154.388L57.6475 153.968C57.3353 153.689 57.1606 153.287 57.169 152.867L57.1965 151.488Z" fill="white"/>
<path fill-rule="evenodd" clip-rule="evenodd" d="M90.9475 93.4968C90.784 93.3283 90.6642 93.1225 90.5984 92.8972L89.85 90.3326C89.7703 90.0598 90.0235 89.8066 90.2964 89.8862L92.8609 90.6346C93.0863 90.7004 93.2921 90.8203 93.4605 90.9837L127.477 124.006L123.97 127.514L90.9475 93.4968Z" fill="white"/>
<path fill-rule="evenodd" clip-rule="evenodd" d="M122.935 128.484C122.808 128.357 122.793 128.156 122.903 128.014C123.351 127.433 124.49 125.977 125.215 125.252C125.94 124.527 127.395 123.388 127.977 122.94C128.119 122.83 128.32 122.845 128.447 122.972L129.019 123.544C129.146 123.671 129.16 123.872 129.051 124.014C128.603 124.595 127.464 126.051 126.739 126.776C126.014 127.501 124.558 128.64 123.977 129.088C123.834 129.198 123.634 129.183 123.507 129.056L122.935 128.484Z" fill="white"/>
<path fill-rule="evenodd" clip-rule="evenodd" d="M125.229 127.27L127.233 125.266L133.077 131.61L131.573 133.114L125.229 127.27Z" fill="white"/>
<path fill-rule="evenodd" clip-rule="evenodd" d="M130.601 134.334C130.201 134.092 130.134 133.539 130.464 133.208L133.173 130.5C133.504 130.169 134.057 130.236 134.299 130.636L135.012 131.817C135.229 132.176 135.279 132.611 135.148 133.01L134.953 133.607C134.739 134.261 134.226 134.774 133.572 134.988L132.975 135.183C132.576 135.314 132.141 135.264 131.782 135.047L130.601 134.334Z" fill="white"/>
<path fill-rule="evenodd" clip-rule="evenodd" d="M94.0441 89.8657C93.8426 89.7454 93.6736 89.5775 93.5517 89.3769L92.165 87.0935C92.0175 86.8505 92.1965 86.5404 92.4807 86.5467L95.1516 86.6059C95.3863 86.6111 95.6161 86.6736 95.8211 86.7879L137.226 109.881L134.745 114.177L94.0441 89.8657Z" fill="white"/>
<path fill-rule="evenodd" clip-rule="evenodd" d="M133.997 115.381C133.841 115.291 133.775 115.101 133.844 114.935C134.127 114.258 134.85 112.557 135.363 111.669C135.876 110.782 136.986 109.305 137.432 108.721C137.541 108.579 137.739 108.54 137.894 108.63L138.595 109.035C138.751 109.125 138.816 109.315 138.747 109.481C138.465 110.158 137.742 111.859 137.229 112.747C136.716 113.635 135.605 115.112 135.16 115.695C135.05 115.838 134.853 115.876 134.697 115.786L133.997 115.381Z" fill="white"/>
<path fill-rule="evenodd" clip-rule="evenodd" d="M135.898 113.615L137.316 111.16L144.602 115.776L143.539 117.618L135.898 113.615Z" fill="white"/>
<path fill-rule="evenodd" clip-rule="evenodd" d="M142.914 119.049C142.465 118.919 142.257 118.402 142.491 117.997L144.406 114.679C144.64 114.274 145.192 114.196 145.529 114.52L146.523 115.476C146.826 115.766 146.986 116.174 146.964 116.593L146.929 117.22C146.892 117.907 146.529 118.535 145.953 118.911L145.427 119.255C145.075 119.484 144.642 119.549 144.239 119.432L142.914 119.049Z" fill="white"/>
<path fill-rule="evenodd" clip-rule="evenodd" d="M86.7515 95.8569C86.6371 95.6519 86.5746 95.422 86.5694 95.1874L86.5102 92.5165C86.5039 92.2323 86.814 92.0533 87.057 92.2008L89.3404 93.5875C89.5411 93.7094 89.7089 93.8784 89.8292 94.0799L114.14 134.781L109.844 137.261L86.7515 95.8569Z" fill="white"/>
<path fill-rule="evenodd" clip-rule="evenodd" d="M108.594 137.93C108.504 137.775 108.542 137.577 108.685 137.468C109.268 137.022 110.745 135.911 111.633 135.399C112.521 134.886 114.222 134.163 114.899 133.88C115.065 133.811 115.255 133.877 115.345 134.033L115.75 134.733C115.84 134.889 115.802 135.086 115.659 135.196C115.075 135.641 113.599 136.752 112.711 137.265C111.823 137.777 110.122 138.501 109.445 138.783C109.279 138.852 109.089 138.787 108.999 138.631L108.594 137.93Z" fill="white"/>
<path fill-rule="evenodd" clip-rule="evenodd" d="M111.125 137.352L113.58 135.934L117.582 143.575L115.741 144.638L111.125 137.352Z" fill="white"/>
<path fill-rule="evenodd" clip-rule="evenodd" d="M114.485 145.565C114.161 145.228 114.239 144.676 114.644 144.443L117.961 142.527C118.366 142.294 118.883 142.502 119.013 142.951L119.397 144.276C119.513 144.678 119.448 145.112 119.219 145.463L118.876 145.989C118.5 146.566 117.872 146.928 117.185 146.966L116.557 147C116.139 147.023 115.731 146.862 115.44 146.56L114.485 145.565Z" fill="white"/>
<path fill-rule="evenodd" clip-rule="evenodd" d="M98.0268 80.1946C97.7921 80.1911 97.5619 80.1303 97.356 80.0175L95.0134 78.7333C94.7641 78.5967 94.7641 78.2386 95.0134 78.1019L97.356 76.8178C97.5619 76.705 97.7921 76.6441 98.0268 76.6407L145.43 75.9373V80.8979L98.0268 80.1946Z" fill="white"/>
<path fill-rule="evenodd" clip-rule="evenodd" d="M145.386 82.3154C145.206 82.3154 145.054 82.1838 145.031 82.0055C144.937 81.2776 144.713 79.4431 144.713 78.4178C144.713 77.3925 144.937 75.558 145.031 74.8301C145.054 74.6518 145.206 74.5201 145.386 74.5201H146.195C146.375 74.5201 146.526 74.6518 146.55 74.8301C146.644 75.558 146.868 77.3925 146.868 78.4178C146.868 79.4431 146.644 81.2776 146.55 82.0055C146.526 82.1838 146.375 82.3154 146.195 82.3154H145.386Z" fill="white"/>
<path fill-rule="evenodd" clip-rule="evenodd" d="M146.148 79.835V77.0003L154.767 77.3546V79.4806L146.148 79.835Z" fill="white"/>
<path fill-rule="evenodd" clip-rule="evenodd" d="M154.941 81.0323C154.487 81.1443 154.049 80.8007 154.049 80.3333V76.5023C154.049 76.0348 154.487 75.6913 154.941 75.8033L156.281 76.1336C156.688 76.2341 157.031 76.5069 157.22 76.8808L157.504 77.4414C157.815 78.0552 157.815 78.7804 157.504 79.3941L157.22 79.9547C157.031 80.3287 156.688 80.6015 156.281 80.7019L154.941 81.0323Z" fill="white"/>
<path fill-rule="evenodd" clip-rule="evenodd" d="M96.7292 84.8302C96.5034 84.7661 96.2967 84.6477 96.127 84.4855L94.1966 82.6387C93.9912 82.4422 94.0839 82.0964 94.36 82.0289L96.9552 81.3948C97.1832 81.3391 97.4214 81.34 97.649 81.3973L143.619 92.9869L142.336 97.7785L96.7292 84.8302Z" fill="white"/>
<path fill-rule="evenodd" clip-rule="evenodd" d="M141.925 99.136C141.752 99.0895 141.639 98.923 141.663 98.7448C141.76 98.0173 142.019 96.1875 142.284 95.1971C142.55 94.2067 143.24 92.4926 143.52 91.8139C143.588 91.6477 143.769 91.5598 143.943 91.6064L144.724 91.8158C144.898 91.8623 145.011 92.0288 144.987 92.207C144.89 92.9345 144.631 94.7644 144.365 95.7547C144.1 96.7451 143.409 98.4592 143.13 99.1379C143.061 99.3041 142.88 99.392 142.707 99.3454L141.925 99.136Z" fill="white"/>
<path fill-rule="evenodd" clip-rule="evenodd" d="M143.305 96.9375L144.038 94.1994L152.272 96.7723L151.721 98.8259L143.305 96.9375Z" fill="white"/>
<path fill-rule="evenodd" clip-rule="evenodd" d="M151.487 100.37C151.02 100.361 150.685 99.9152 150.806 99.4637L151.798 95.7633C151.919 95.3117 152.431 95.0934 152.841 95.3191L154.049 95.9848C154.416 96.1871 154.677 96.5394 154.763 96.9497L154.892 97.5647C155.034 98.2381 154.846 98.9386 154.387 99.4509L153.968 99.9189C153.688 100.231 153.286 100.406 152.867 100.397L151.487 100.37Z" fill="white"/>
<path fill-rule="evenodd" clip-rule="evenodd" d="M93.4977 66.6179C93.3293 66.7814 93.1235 66.9013 92.8981 66.967L90.3336 67.7155C90.0607 67.7951 89.8075 67.5419 89.8872 67.269L90.6356 64.7045C90.7014 64.4792 90.8212 64.2733 90.9847 64.1049L124.007 30.0881L127.515 33.5958L93.4977 66.6179Z" fill="white"/>
<path fill-rule="evenodd" clip-rule="evenodd" d="M128.484 34.6302C128.356 34.7574 128.156 34.7717 128.013 34.662C127.432 34.2139 125.977 33.0749 125.252 32.3499C124.527 31.6249 123.388 30.1696 122.94 29.5882C122.83 29.4458 122.844 29.2452 122.971 29.1181L123.544 28.546C123.671 28.4189 123.871 28.4045 124.014 28.5143C124.595 28.9623 126.05 30.1013 126.775 30.8263C127.5 31.5514 128.639 33.0067 129.087 33.5881C129.197 33.7305 129.183 33.931 129.056 34.0581L128.484 34.6302Z" fill="white"/>
<path fill-rule="evenodd" clip-rule="evenodd" d="M127.27 32.3364L125.265 30.332L131.61 24.4883L133.113 25.9917L127.27 32.3364Z" fill="white"/>
<path fill-rule="evenodd" clip-rule="evenodd" d="M134.335 26.9657C134.093 27.3658 133.54 27.433 133.209 27.1025L130.501 24.3936C130.17 24.063 130.237 23.51 130.637 23.2683L131.818 22.5548C132.177 22.338 132.612 22.2883 133.011 22.4188L133.608 22.6143C134.262 22.8284 134.775 23.3412 134.989 23.9951L135.184 24.5924C135.315 24.9908 135.265 25.4263 135.048 25.7851L134.335 26.9657Z" fill="white"/>
<path fill-rule="evenodd" clip-rule="evenodd" d="M89.8672 63.5223C89.7468 63.7238 89.579 63.8928 89.3784 64.0147L87.0949 65.4014C86.852 65.5489 86.5419 65.3699 86.5482 65.0857L86.6074 62.4148C86.6126 62.1802 86.6751 61.9503 86.7894 61.7453L109.882 20.3409L114.178 22.8212L89.8672 63.5223Z" fill="white"/>
<path fill-rule="evenodd" clip-rule="evenodd" d="M115.381 23.5692C115.291 23.7249 115.101 23.7907 114.935 23.7215C114.258 23.4392 112.557 22.7157 111.669 22.203C110.782 21.6904 109.305 20.5794 108.721 20.1338C108.579 20.0247 108.54 19.8273 108.63 19.6716L109.035 18.9709C109.125 18.8152 109.315 18.7494 109.481 18.8186C110.158 19.1009 111.859 19.8244 112.747 20.3371C113.635 20.8497 115.112 21.9606 115.695 22.4063C115.838 22.5154 115.876 22.7128 115.786 22.8685L115.381 23.5692Z" fill="white"/>
<path fill-rule="evenodd" clip-rule="evenodd" d="M113.615 21.6675L111.16 20.2502L115.776 12.9635L117.618 14.0264L113.615 21.6675Z" fill="white"/>
<path fill-rule="evenodd" clip-rule="evenodd" d="M119.049 14.6512C118.919 15.1003 118.402 15.3083 117.997 15.0746L114.679 13.1591C114.274 12.9254 114.196 12.3738 114.52 12.0367L115.476 11.0421C115.766 10.7398 116.174 10.5791 116.593 10.6019L117.22 10.6362C117.907 10.6737 118.535 11.0363 118.911 11.6126L119.255 12.1389C119.484 12.49 119.549 12.9235 119.432 13.3262L119.049 14.6512Z" fill="white"/>
<path fill-rule="evenodd" clip-rule="evenodd" d="M95.8564 70.814C95.6514 70.9283 95.4216 70.9908 95.1869 70.996L92.516 71.0552C92.2318 71.0615 92.0528 70.7514 92.2003 70.5084L93.587 68.225C93.7089 68.0244 93.8779 67.8566 94.0794 67.7362L134.781 43.4252L137.261 47.7213L95.8564 70.814Z" fill="white"/>
<path fill-rule="evenodd" clip-rule="evenodd" d="M137.93 48.9717C137.775 49.0616 137.577 49.0236 137.468 48.8807C137.022 48.2975 135.911 46.8206 135.399 45.9326C134.886 45.0447 134.163 43.3442 133.88 42.6666C133.811 42.5007 133.877 42.3107 134.033 42.2208L134.733 41.8162C134.889 41.7264 135.086 41.7644 135.196 41.9073C135.641 42.4905 136.752 43.9674 137.265 44.8553C137.777 45.7433 138.501 47.4438 138.783 48.1213C138.852 48.2873 138.787 48.4773 138.631 48.5672L137.93 48.9717Z" fill="white"/>
<path fill-rule="evenodd" clip-rule="evenodd" d="M137.352 46.4419L135.934 43.987L143.575 39.9846L144.638 41.8258L137.352 46.4419Z" fill="white"/>
<path fill-rule="evenodd" clip-rule="evenodd" d="M145.565 43.0819C145.228 43.4058 144.676 43.3276 144.443 42.9227L142.527 39.605C142.294 39.2002 142.502 38.6834 142.951 38.5534L144.276 38.1699C144.678 38.0533 145.112 38.118 145.463 38.3472L145.989 38.6906C146.566 39.0666 146.928 39.6947 146.966 40.3817L147 41.0092C147.023 41.4279 146.862 41.8357 146.56 42.1261L145.565 43.0819Z" fill="white"/>
<path fill-rule="evenodd" clip-rule="evenodd" d="M80.6267 59.9722C80.6232 60.2069 80.5624 60.4372 80.4496 60.643L79.1654 62.9856C79.0288 63.2349 78.6707 63.2349 78.5341 62.9856L77.2499 60.643C77.1371 60.4372 77.0763 60.2069 77.0728 59.9722L76.3694 12.5685H81.3301L80.6267 59.9722Z" fill="white"/>
<path fill-rule="evenodd" clip-rule="evenodd" d="M82.748 12.6138C82.748 12.7936 82.6164 12.9456 82.4381 12.9687C81.7102 13.063 79.8757 13.2866 78.8504 13.2866C77.8251 13.2866 75.9906 13.063 75.2627 12.9687C75.0844 12.9456 74.9527 12.7936 74.9527 12.6138V11.8048C74.9527 11.625 75.0844 11.473 75.2627 11.4499C75.9906 11.3556 77.8251 11.132 78.8504 11.132C79.8757 11.132 81.7102 11.3556 82.4381 11.4499C82.6164 11.473 82.748 11.625 82.748 11.8048V12.6138Z" fill="white"/>
<path fill-rule="evenodd" clip-rule="evenodd" d="M80.2676 11.8501L77.4329 11.8501L77.7873 3.23156L79.9132 3.23156L80.2676 11.8501Z" fill="white"/>
<path fill-rule="evenodd" clip-rule="evenodd" d="M81.4654 3.05776C81.5774 3.51163 81.2338 3.9502 80.7664 3.9502L76.9354 3.9502C76.4679 3.9502 76.1244 3.51163 76.2364 3.05776L76.5667 1.71848C76.6672 1.31144 76.94 0.968367 77.3139 0.778863L77.8745 0.494786C78.4883 0.183777 79.2135 0.183777 79.8272 0.494786L80.3878 0.778863C80.7618 0.968367 81.0346 1.31144 81.135 1.71848L81.4654 3.05776Z" fill="white"/>
<path fill-rule="evenodd" clip-rule="evenodd" d="M75.8701 60.3503C75.9275 60.5779 75.9284 60.816 75.8727 61.0441L75.2386 63.6392C75.1711 63.9154 74.8252 64.0081 74.6287 63.8027L72.782 61.8722C72.6197 61.7026 72.5014 61.4959 72.4373 61.2701L59.4889 15.6637L64.2806 14.3798L75.8701 60.3503Z" fill="white"/>
<path fill-rule="evenodd" clip-rule="evenodd" d="M65.6618 14.0572C65.7083 14.2308 65.6205 14.4117 65.4543 14.4801C64.7756 14.7596 63.0615 15.4504 62.0711 15.7158C61.0807 15.9812 59.2509 16.24 58.5233 16.3373C58.3452 16.3611 58.1787 16.2484 58.1321 16.0748L57.9227 15.2932C57.8762 15.1196 57.964 14.9387 58.1303 14.8703C58.809 14.5908 60.5231 13.9 61.5134 13.6346C62.5038 13.3692 64.3337 13.1105 65.0612 13.0132C65.2394 12.9893 65.4059 13.102 65.4524 13.2757L65.6618 14.0572Z" fill="white"/>
<path fill-rule="evenodd" clip-rule="evenodd" d="M63.0684 13.9614L60.3303 14.6951L58.4419 6.27852L60.4955 5.72827L63.0684 13.9614Z" fill="white"/>
<path fill-rule="evenodd" clip-rule="evenodd" d="M61.949 5.15833C62.1746 5.56776 61.9563 6.08029 61.5047 6.20128L57.8043 7.1928C57.3528 7.31379 56.9074 6.97909 56.8981 6.5117L56.8706 5.13255C56.8622 4.71339 57.0369 4.3114 57.3491 4.03156L57.8171 3.61207C58.3294 3.15281 59.0299 2.96511 59.7033 3.10667L60.3183 3.23598C60.7286 3.32223 61.0809 3.58301 61.2832 3.95019L61.949 5.15833Z" fill="white"/>
<path fill-rule="evenodd" clip-rule="evenodd" d="M85.2633 61.2704C85.1992 61.4962 85.0808 61.7029 84.9186 61.8725L83.0718 63.8029C82.8753 64.0083 82.5295 63.9157 82.462 63.6395L81.8279 61.0443C81.7722 60.8163 81.7731 60.5781 81.8304 60.3505L93.42 14.3801L98.2116 15.664L85.2633 61.2704Z" fill="white"/>
<path fill-rule="evenodd" clip-rule="evenodd" d="M99.5687 16.0748C99.5221 16.2484 99.3556 16.3611 99.1774 16.3373C98.4499 16.24 96.6201 15.9812 95.6297 15.7158C94.6393 15.4505 92.9252 14.7596 92.2465 14.4801C92.0803 14.4117 91.9924 14.2308 92.039 14.0572L92.2484 13.2757C92.2949 13.102 92.4614 12.9893 92.6396 13.0132C93.3671 13.1105 95.197 13.3692 96.1874 13.6346C97.1777 13.9 98.8918 14.5908 99.5705 14.8703C99.7368 14.9387 99.8246 15.1196 99.7781 15.2932L99.5687 16.0748Z" fill="white"/>
<path fill-rule="evenodd" clip-rule="evenodd" d="M97.3711 14.6948L94.633 13.9612L97.2059 5.72801L99.2595 6.27825L97.3711 14.6948Z" fill="white"/>
<path fill-rule="evenodd" clip-rule="evenodd" d="M100.803 6.51166C100.794 6.97905 100.349 7.31375 99.8973 7.19276L96.1969 6.20124C95.7453 6.08025 95.527 5.56772 95.7526 5.15829L96.4184 3.95015C96.6207 3.58297 96.973 3.32219 97.3833 3.23594L97.9983 3.10663C98.6717 2.96507 99.3722 3.15277 99.8845 3.61203L100.352 4.03152C100.665 4.31136 100.839 4.71335 100.831 5.13251L100.803 6.51166Z" fill="white"/>
<path fill-rule="evenodd" clip-rule="evenodd" d="M67.0525 64.5032C67.216 64.6717 67.3358 64.8775 67.4016 65.1028L68.15 67.6674C68.2297 67.9402 67.9765 68.1934 67.7036 68.1138L65.1391 67.3654C64.9137 67.2996 64.7079 67.1797 64.5395 67.0163L30.5227 33.9942L34.0304 30.4865L67.0525 64.5032Z" fill="white"/>
<path fill-rule="evenodd" clip-rule="evenodd" d="M35.0653 29.516C35.1924 29.6431 35.2068 29.8436 35.097 29.986C34.649 30.5674 33.51 32.0227 32.785 32.7478C32.06 33.4728 30.6046 34.6118 30.0232 35.0598C29.8808 35.1696 29.6803 35.1552 29.5532 35.0281L28.9811 34.456C28.854 34.3289 28.8396 34.1283 28.9493 33.9859C29.3974 33.4045 30.5364 31.9492 31.2614 31.2242C31.9864 30.4992 33.4417 29.3602 34.0231 28.9121C34.1655 28.8024 34.3661 28.8167 34.4932 28.9439L35.0653 29.516Z" fill="white"/>
<path fill-rule="evenodd" clip-rule="evenodd" d="M32.7715 30.73L30.7671 32.7344L24.9234 26.3896L26.4267 24.8863L32.7715 30.73Z" fill="white"/>
<path fill-rule="evenodd" clip-rule="evenodd" d="M27.3988 23.6662C27.7989 23.908 27.8661 24.461 27.5356 24.7916L24.8267 27.5004C24.4961 27.831 23.9431 27.7638 23.7014 27.3637L22.988 26.1831C22.7711 25.8243 22.7214 25.3888 22.8519 24.9903L23.0474 24.393C23.2615 23.7391 23.7743 23.2263 24.4282 23.0123L25.0255 22.8167C25.4239 22.6863 25.8594 22.736 26.2182 22.9528L27.3988 23.6662Z" fill="white"/>
<path fill-rule="evenodd" clip-rule="evenodd" d="M63.9559 68.1343C64.1574 68.2546 64.3264 68.4225 64.4483 68.6231L65.835 70.9065C65.9825 71.1495 65.8035 71.4596 65.5193 71.4533L62.8484 71.3941C62.6137 71.3889 62.3839 71.3264 62.1789 71.2121L20.7745 48.1194L23.2548 43.8233L63.9559 68.1343Z" fill="white"/>
<path fill-rule="evenodd" clip-rule="evenodd" d="M24.0033 42.6187C24.159 42.7086 24.2248 42.8986 24.1556 43.0645C23.8733 43.7421 23.1498 45.4426 22.6371 46.3305C22.1245 47.2185 21.0135 48.6954 20.5679 49.2786C20.4588 49.4215 20.2613 49.4595 20.1056 49.3696L19.405 48.9651C19.2493 48.8752 19.1835 48.6852 19.2526 48.5192C19.5349 47.8417 20.2585 46.1412 20.7711 45.2532C21.2838 44.3653 22.3947 42.8884 22.8404 42.3052C22.9495 42.1623 23.1469 42.1243 23.3026 42.2141L24.0033 42.6187Z" fill="white"/>
<path fill-rule="evenodd" clip-rule="evenodd" d="M22.1016 44.3848L20.6842 46.8396L13.3975 42.2235L14.4605 40.3824L22.1016 44.3848Z" fill="white"/>
<path fill-rule="evenodd" clip-rule="evenodd" d="M15.0858 38.9515C15.5349 39.0814 15.7429 39.5982 15.5092 40.0031L13.5937 43.3208C13.3599 43.7256 12.8084 43.8038 12.4713 43.4799L11.4766 42.5242C11.1743 42.2337 11.0136 41.8259 11.0365 41.4073L11.0708 40.7798C11.1083 40.0927 11.4709 39.4647 12.0471 39.0887L12.5734 38.7452C12.9245 38.5161 13.3581 38.4514 13.7608 38.5679L15.0858 38.9515Z" fill="white"/>
<path fill-rule="evenodd" clip-rule="evenodd" d="M71.2485 62.1431C71.3629 62.3481 71.4254 62.578 71.4306 62.8126L71.4898 65.4835C71.4961 65.7677 71.186 65.9467 70.943 65.7992L68.6596 64.4125C68.4589 64.2906 68.2911 64.1216 68.1708 63.9201L43.8598 23.219L48.1559 20.7387L71.2485 62.1431Z" fill="white"/>
<path fill-rule="evenodd" clip-rule="evenodd" d="M49.4058 20.0697C49.4957 20.2254 49.4576 20.4228 49.3148 20.532C48.7315 20.9776 47.2547 22.0885 46.3667 22.6012C45.4788 23.1138 43.7783 23.8374 43.1007 24.1197C42.9348 24.1888 42.7448 24.123 42.6549 23.9674L42.2503 23.2667C42.1604 23.111 42.1985 22.9136 42.3413 22.8044C42.9246 22.3588 44.4015 21.2479 45.2894 20.7352C46.1774 20.2225 47.8779 19.499 48.5554 19.2167C48.7214 19.1476 48.9114 19.2133 49.0013 19.369L49.4058 20.0697Z" fill="white"/>
<path fill-rule="evenodd" clip-rule="evenodd" d="M46.875 20.6484L44.4201 22.0658L40.4177 14.4247L42.2589 13.3617L46.875 20.6484Z" fill="white"/>
<path fill-rule="evenodd" clip-rule="evenodd" d="M43.5155 12.4349C43.8394 12.7719 43.7612 13.3235 43.3563 13.5573L40.0386 15.4727C39.6338 15.7065 39.117 15.4984 38.987 15.0494L38.6035 13.7243C38.4869 13.3216 38.5516 12.8881 38.7808 12.537L39.1242 12.0107C39.5002 11.4345 40.1283 11.0719 40.8153 11.0343L41.4428 11.0001C41.8615 10.9772 42.2693 11.1379 42.5597 11.4402L43.5155 12.4349Z" fill="white"/>
<path fill-rule="evenodd" clip-rule="evenodd" d="M59.9732 77.8054C60.2079 77.8089 60.4381 77.8697 60.644 77.9825L62.9866 79.2667C63.2359 79.4033 63.2359 79.7614 62.9866 79.8981L60.644 81.1822C60.4381 81.295 60.2079 81.3559 59.9732 81.3593L12.5695 82.0627V77.1021L59.9732 77.8054Z" fill="white"/>
<path fill-rule="evenodd" clip-rule="evenodd" d="M12.6143 75.6846C12.7941 75.6846 12.9461 75.8162 12.9692 75.9945C13.0635 76.7224 13.2871 78.5569 13.2871 79.5822C13.2871 80.6075 13.0635 82.442 12.9692 83.1699C12.9461 83.3482 12.7941 83.4799 12.6143 83.4799H11.8053C11.6255 83.4799 11.4735 83.3482 11.4504 83.1699C11.3561 82.442 11.1325 80.6075 11.1325 79.5822C11.1325 78.5569 11.3561 76.7224 11.4504 75.9945C11.4735 75.8162 11.6255 75.6846 11.8053 75.6846H12.6143Z" fill="white"/>
<path fill-rule="evenodd" clip-rule="evenodd" d="M11.8516 78.165L11.8516 80.9997L3.23303 80.6454L3.23303 78.5194L11.8516 78.165Z" fill="white"/>
<path fill-rule="evenodd" clip-rule="evenodd" d="M3.05873 76.9677C3.51261 76.8557 3.95117 77.1993 3.95117 77.6667L3.95117 81.4977C3.95117 81.9652 3.51261 82.3087 3.05873 82.1967L1.71946 81.8664C1.31242 81.7659 0.969344 81.4931 0.77984 81.1192L0.495763 80.5586C0.184754 79.9448 0.184754 79.2196 0.495763 78.6059L0.77984 78.0453C0.969344 77.6713 1.31242 77.3985 1.71946 77.2981L3.05873 76.9677Z" fill="white"/>
<path fill-rule="evenodd" clip-rule="evenodd" d="M60.3517 82.562C60.5793 82.5046 60.8175 82.5037 61.0455 82.5595L63.6407 83.1935C63.9169 83.261 64.0095 83.6069 63.8041 83.8034L61.8737 85.6501C61.7041 85.8124 61.4973 85.9307 61.2715 85.9948L15.6652 98.9432L14.3813 94.1516L60.3517 82.562Z" fill="white"/>
<path fill-rule="evenodd" clip-rule="evenodd" d="M14.0572 92.7708C14.2308 92.7243 14.4117 92.8121 14.4801 92.9784C14.7596 93.6571 15.4504 95.3711 15.7158 96.3615C15.9812 97.3519 16.24 99.1817 16.3373 99.9093C16.3611 100.087 16.2484 100.254 16.0748 100.3L15.2932 100.51C15.1196 100.556 14.9387 100.469 14.8703 100.302C14.5908 99.6236 13.9 97.9096 13.6346 96.9192C13.3692 95.9288 13.1105 94.099 13.0132 93.3714C12.9893 93.1932 13.102 93.0267 13.2757 92.9802L14.0572 92.7708Z" fill="white"/>
<path fill-rule="evenodd" clip-rule="evenodd" d="M13.9629 95.3643L14.6966 98.1023L6.27998 99.9907L5.72973 97.9372L13.9629 95.3643Z" fill="white"/>
<path fill-rule="evenodd" clip-rule="evenodd" d="M5.15979 96.4837C5.56923 96.258 6.08175 96.4764 6.20275 96.9279L7.19427 100.628C7.31526 101.08 6.98055 101.525 6.51316 101.535L5.13402 101.562C4.71486 101.57 4.31286 101.396 4.03303 101.083L3.61354 100.616C3.15427 100.103 2.96658 99.4027 3.10814 98.7293L3.23744 98.1143C3.3237 97.7041 3.58447 97.3517 3.95166 97.1494L5.15979 96.4837Z" fill="white"/>
<path fill-rule="evenodd" clip-rule="evenodd" d="M61.2708 73.1698C61.4966 73.2339 61.7033 73.3523 61.873 73.5145L63.8034 75.3613C64.0088 75.5578 63.9161 75.9036 63.64 75.9711L61.0448 76.6052C60.8168 76.6609 60.5786 76.66 60.351 76.6027L14.3806 65.0131L15.6645 60.2215L61.2708 73.1698Z" fill="white"/>
<path fill-rule="evenodd" clip-rule="evenodd" d="M16.0748 58.864C16.2484 58.9105 16.3611 59.077 16.3373 59.2552C16.24 59.9827 15.9812 61.8125 15.7158 62.8029C15.4505 63.7933 14.7596 65.5074 14.4801 66.1861C14.4117 66.3523 14.2308 66.4402 14.0572 66.3936L13.2757 66.1842C13.102 66.1377 12.9893 65.9712 13.0132 65.793C13.1105 65.0655 13.3692 63.2356 13.6346 62.2453C13.9 61.2549 14.5908 59.5408 14.8703 58.8621C14.9387 58.6959 15.1196 58.608 15.2932 58.6546L16.0748 58.864Z" fill="white"/>
<path fill-rule="evenodd" clip-rule="evenodd" d="M14.6953 61.0625L13.9616 63.8006L5.72849 61.2277L6.27874 59.1741L14.6953 61.0625Z" fill="white"/>
<path fill-rule="evenodd" clip-rule="evenodd" d="M6.51263 57.6301C6.98002 57.6394 7.31473 58.0848 7.19374 58.5363L6.20222 62.2367C6.08123 62.6883 5.5687 62.9066 5.15926 62.6809L3.95113 62.0152C3.58394 61.8129 3.32317 61.4606 3.23691 61.0503L3.10761 60.4353C2.96605 59.7619 3.15375 59.0614 3.61301 58.5491L4.0325 58.0811C4.31234 57.7689 4.71433 57.5942 5.13349 57.6026L6.51263 57.6301Z" fill="white"/>
<path fill-rule="evenodd" clip-rule="evenodd" d="M64.5023 91.3821C64.6707 91.2186 64.8765 91.0987 65.1019 91.033L67.6664 90.2845C67.9393 90.2049 68.1925 90.4581 68.1128 90.731L67.3644 93.2955C67.2986 93.5208 67.1788 93.7267 67.0153 93.8951L33.9932 127.912L30.4855 124.404L64.5023 91.3821Z" fill="white"/>
<path fill-rule="evenodd" clip-rule="evenodd" d="M29.5165 123.37C29.6436 123.243 29.8441 123.228 29.9865 123.338C30.5679 123.786 32.0232 124.925 32.7482 125.65C33.4732 126.375 34.6123 127.83 35.0603 128.412C35.17 128.554 35.1557 128.755 35.0286 128.882L34.4565 129.454C34.3293 129.581 34.1288 129.595 33.9864 129.486C33.405 129.038 31.9497 127.899 31.2247 127.174C30.4997 126.449 29.3607 124.993 28.9126 124.412C28.8029 124.27 28.8172 124.069 28.9444 123.942L29.5165 123.37Z" fill="white"/>
<path fill-rule="evenodd" clip-rule="evenodd" d="M30.7305 125.664L32.7349 127.668L26.3901 133.512L24.8868 132.008L30.7305 125.664Z" fill="white"/>
<path fill-rule="evenodd" clip-rule="evenodd" d="M23.6652 131.034C23.907 130.634 24.46 130.567 24.7906 130.898L27.4995 133.606C27.83 133.937 27.7628 134.49 27.3627 134.732L26.1821 135.445C25.8233 135.662 25.3878 135.712 24.9893 135.581L24.3921 135.386C23.7382 135.172 23.2254 134.659 23.0113 134.005L22.8158 133.408C22.6853 133.009 22.735 132.574 22.9518 132.215L23.6652 131.034Z" fill="white"/>
<path fill-rule="evenodd" clip-rule="evenodd" d="M68.1328 94.4777C68.2532 94.2762 68.421 94.1072 68.6216 93.9853L70.9051 92.5986C71.148 92.4511 71.4581 92.6301 71.4518 92.9143L71.3926 95.5852C71.3874 95.8198 71.3249 96.0497 71.2106 96.2547L48.1179 137.659L43.8219 135.179L68.1328 94.4777Z" fill="white"/>
<path fill-rule="evenodd" clip-rule="evenodd" d="M42.6187 134.431C42.7086 134.275 42.8986 134.209 43.0645 134.278C43.7421 134.561 45.4426 135.284 46.3305 135.797C47.2185 136.31 48.6954 137.421 49.2786 137.866C49.4215 137.975 49.4595 138.173 49.3696 138.328L48.9651 139.029C48.8752 139.185 48.6852 139.251 48.5192 139.181C47.8417 138.899 46.1412 138.176 45.2532 137.663C44.3653 137.15 42.8884 136.039 42.3052 135.594C42.1623 135.485 42.1243 135.287 42.2141 135.131L42.6187 134.431Z" fill="white"/>
<path fill-rule="evenodd" clip-rule="evenodd" d="M44.3848 136.333L46.8396 137.75L42.2235 145.037L40.3824 143.974L44.3848 136.333Z" fill="white"/>
<path fill-rule="evenodd" clip-rule="evenodd" d="M38.9515 143.349C39.0814 142.9 39.5982 142.692 40.0031 142.925L43.3208 144.841C43.7256 145.075 43.8038 145.626 43.4799 145.963L42.5242 146.958C42.2337 147.26 41.8259 147.421 41.4073 147.398L40.7798 147.364C40.0927 147.326 39.4647 146.964 39.0887 146.387L38.7452 145.861C38.5161 145.51 38.4514 145.077 38.5679 144.674L38.9515 143.349Z" fill="white"/>
<path fill-rule="evenodd" clip-rule="evenodd" d="M62.1436 87.186C62.3486 87.0717 62.5784 87.0092 62.8131 87.004L65.484 86.9448C65.7682 86.9385 65.9472 87.2486 65.7997 87.4916L64.413 89.775C64.2911 89.9756 64.1221 90.1434 63.9206 90.2638L23.2195 114.575L20.7392 110.279L62.1436 87.186Z" fill="white"/>
<path fill-rule="evenodd" clip-rule="evenodd" d="M20.0697 109.028C20.2254 108.938 20.4228 108.976 20.532 109.119C20.9776 109.703 22.0885 111.179 22.6012 112.067C23.1138 112.955 23.8374 114.656 24.1197 115.333C24.1888 115.499 24.123 115.689 23.9674 115.779L23.2667 116.184C23.111 116.274 22.9136 116.236 22.8044 116.093C22.3588 115.509 21.2479 114.033 20.7352 113.145C20.2225 112.257 19.499 110.556 19.2167 109.879C19.1476 109.713 19.2133 109.523 19.369 109.433L20.0697 109.028Z" fill="white"/>
<path fill-rule="evenodd" clip-rule="evenodd" d="M20.6484 111.558L22.0658 114.013L14.4247 118.015L13.3617 116.174L20.6484 111.558Z" fill="white"/>
<path fill-rule="evenodd" clip-rule="evenodd" d="M12.4349 114.918C12.7719 114.594 13.3235 114.672 13.5573 115.077L15.4727 118.395C15.7065 118.8 15.4984 119.317 15.0494 119.447L13.7243 119.83C13.3216 119.947 12.8881 119.882 12.537 119.653L12.0107 119.309C11.4345 118.933 11.0719 118.305 11.0343 117.618L11.0001 116.991C10.9772 116.572 11.1379 116.164 11.4402 115.874L12.4349 114.918Z" fill="white"/>
</svg>
