<svg width="414" height="83" viewBox="0 0 414 83" fill="none" xmlns="http://www.w3.org/2000/svg">
<rect width="414" height="83" fill="#FDFDFD"/>
<rect x="359" y="12.5" width="24" height="24" rx="12" fill="#D2D2D2" stroke="black" stroke-width="2"/>
<mask id="mask0_0_298" style="mask-type:luminance" maskUnits="userSpaceOnUse" x="358" y="11" width="26" height="27">
<rect x="359" y="12.5" width="24" height="24" rx="12" fill="white" stroke="white" stroke-width="2"/>
</mask>
<g mask="url(#mask0_0_298)">
</g>
<path fill-rule="evenodd" clip-rule="evenodd" d="M278 14.38C278 13.894 278.394 13.5 278.88 13.5H299C299.552 13.5 300 13.9477 300 14.5V14.5C300 15.0523 299.552 15.5 299 15.5V15.5V31.5C299 33.7091 297.209 35.5 295 35.5H289V33.5H295C296.105 33.5 297 32.6046 297 31.5V15.5H289V18.5H293C293.552 18.5 294 18.9477 294 19.5V19.5C294 20.0523 293.552 20.5 293 20.5H285C284.448 20.5 284 20.0523 284 19.5V19.5C284 18.9477 284.448 18.5 285 18.5H289V15.5H281V31.5C281 32.6046 281.895 33.5 283 33.5H289V35.5H283C280.791 35.5 279 33.7091 279 31.5V15.5V15.5C278.448 15.5 278 15.0523 278 14.5V14.38Z" fill="#A2A2A2"/>
<path fill-rule="evenodd" clip-rule="evenodd" d="M206 14.5C206 13.9477 206.448 13.5 207 13.5V13.5C207.552 13.5 208 13.9477 208 14.5V23.5H217C217.552 23.5 218 23.9477 218 24.5V24.5C218 25.0523 217.552 25.5 217 25.5H208V34.5C208 35.0523 207.552 35.5 207 35.5V35.5C206.448 35.5 206 35.0523 206 34.5V25.5H197C196.448 25.5 196 25.0523 196 24.5V24.5C196 23.9477 196.448 23.5 197 23.5H206V14.5Z" fill="#A2A2A2"/>
<path fill-rule="evenodd" clip-rule="evenodd" d="M114 23.5C114 23.5 114.009 23.1921 114.013 23.0859C114.018 22.9616 114.022 22.8975 114.026 22.8322C114.034 22.6934 114.075 22.2127 114.147 21.7744C114.211 21.3879 114.306 21.0366 114.331 20.949C114.387 20.7517 114.441 20.5558 114.505 20.3614C114.592 20.0939 114.693 19.8304 114.798 19.5814C115.128 18.8022 115.551 18.1123 115.942 17.5752C116.035 17.4483 116.227 17.1975 116.451 16.9404C116.706 16.6471 117 16.3444 117.175 16.1888C117.301 16.0764 117.5 15.8925 117.784 15.6661C117.846 15.6172 118.083 15.4307 118.368 15.2368C118.69 15.0185 119.07 14.7881 119.267 14.6828C119.444 14.5883 119.956 14.3303 120.523 14.1267C120.737 14.0496 120.954 13.9742 121.166 13.9124C121.572 13.794 121.945 13.7127 122.15 13.6753C122.264 13.6545 122.598 13.5864 123.16 13.5372C123.279 13.5268 123.633 13.5002 124 13.5C124.366 13.4999 124.746 13.5261 124.879 13.5372C125.065 13.5526 125.479 13.6016 125.87 13.6753C126.272 13.7509 126.651 13.8517 126.85 13.9124C126.992 13.9558 127.612 14.1433 128.26 14.449C128.617 14.6172 129.341 15.0102 130 15.5C130.582 15.9323 131.111 16.4606 131.314 16.6832C131.457 16.8403 131.672 17.0734 131.912 17.3871C131.954 17.4421 132.029 17.5353 132.096 17.6268C132.134 17.6803 132.252 17.8473 132.369 18.027C132.494 18.2209 132.618 18.4288 132.663 18.5071C132.852 18.8366 132.992 19.1102 133.086 19.3154C133.178 19.5148 133.294 19.7819 133.415 20.1211C133.475 20.2912 133.596 20.686 133.596 20.686C133.596 20.686 133.779 21.3387 133.854 21.7984C133.878 21.9487 133.915 22.1561 133.938 22.3751C133.963 22.6027 134 23.1644 134 23.1644C134 23.1644 134.009 23.5632 134 23.7773C133.985 24.1513 133.945 24.5519 133.938 24.6131C133.918 24.8114 133.885 25.0413 133.83 25.3314C133.802 25.4782 133.727 25.8211 133.727 25.8211C133.727 25.8211 133.633 26.2037 133.576 26.3851C133.568 26.4096 133.527 26.5435 133.457 26.7473C133.441 26.7944 133.386 26.9781 133.279 27.2369C133.246 27.3163 133.186 27.461 133.109 27.6284C133.092 27.6658 132.997 27.8913 132.805 28.2389C132.774 28.295 132.712 28.414 132.64 28.5392C132.568 28.6628 132.486 28.7921 132.401 28.926C132.26 29.1492 132.116 29.3442 132.068 29.4106C131.96 29.5573 131.744 29.8295 131.744 29.8295L135.526 33.6125L135.681 33.7669C135.681 33.7669 135.803 33.8922 135.844 33.9574C135.93 34.0931 135.963 34.219 135.972 34.258C135.981 34.2935 136.012 34.4392 136 34.5806C135.988 34.7208 135.934 34.8569 135.924 34.8802C135.899 34.9432 135.858 35.0242 135.793 35.1096C135.783 35.1229 135.749 35.1648 135.714 35.2005C135.682 35.2341 135.647 35.2616 135.632 35.2746C135.597 35.3037 135.55 35.333 135.526 35.3478C135.509 35.3589 135.452 35.3961 135.39 35.4231C135.333 35.4479 135.274 35.4623 135.208 35.4799C135.134 35.4995 135 35.5 135 35.5C135 35.5 134.857 35.4937 134.791 35.4799C134.7 35.461 134.607 35.4212 134.56 35.4008C134.489 35.37 134.405 35.3105 134.309 35.2225C134.295 35.21 134.207 35.1235 134.207 35.1235L130.326 31.244C130.326 31.244 130.029 31.4821 129.89 31.5838C129.647 31.7617 129.429 31.9042 129.261 32.0085C129.215 32.0365 128.86 32.2673 128.26 32.5473C128.148 32.5995 128.023 32.6575 127.893 32.7121C127.75 32.7717 127.602 32.8281 127.445 32.8885C127.218 32.9754 126.889 33.0894 126.432 33.2038C126.337 33.2276 125.597 33.4092 124.735 33.4763C124.055 33.5292 123.275 33.4812 122.837 33.4318C122.399 33.3826 121.779 33.2812 121.095 33.0744C120.743 32.968 120.001 32.6659 120.001 32.6659L120.467 30.684C120.467 30.684 121.04 30.9488 121.394 31.0674C121.539 31.1162 121.737 31.1814 121.982 31.244C122.134 31.283 122.493 31.3594 122.493 31.3594C122.493 31.3594 122.829 31.4151 122.989 31.435C123.451 31.4929 123.853 31.5122 124.182 31.4993C124.475 31.4877 124.946 31.4656 125.509 31.3594C125.796 31.3053 126.432 31.1235 126.432 31.1235C126.432 31.1235 126.997 30.925 127.255 30.8089C127.723 30.5985 128.133 30.3562 128.394 30.1871C128.668 30.009 129.006 29.7641 129.392 29.4106C129.574 29.2433 129.967 28.8287 129.967 28.8287C129.967 28.8287 130.446 28.2764 130.694 27.8802C130.794 27.7191 130.951 27.4779 131.109 27.1714C131.21 26.9753 131.42 26.5011 131.42 26.5011C131.42 26.5011 131.566 26.1128 131.625 25.9248C131.723 25.614 131.798 25.3109 131.841 25.0935C131.883 24.8749 131.932 24.581 131.964 24.2193C131.983 24.0037 132 23.5 132 23.5C132 23.5 131.986 22.9843 131.964 22.7406C131.942 22.497 131.884 22.1324 131.884 22.1324C131.884 22.1324 131.818 21.8 131.783 21.6517C131.73 21.4267 131.672 21.2257 131.625 21.0771C131.576 20.9216 131.515 20.7356 131.42 20.5008C131.406 20.4649 131.348 20.3273 131.251 20.1211C131.177 19.9631 131.084 19.7676 130.948 19.5291C130.809 19.2854 130.41 18.7068 130.41 18.7068C130.41 18.7068 130.147 18.3868 130.047 18.2695C129.941 18.1455 129.863 18.0602 129.799 17.9918C129.572 17.7479 129.362 17.5693 129.2 17.4242C129.075 17.3111 128.909 17.1796 128.757 17.066C128.553 16.9143 128.099 16.6274 128.099 16.6274C128.099 16.6274 127.8 16.4567 127.664 16.387C127.461 16.2827 127.263 16.1912 127.145 16.1409C126.755 15.9745 126.42 15.868 126.145 15.7896C126.047 15.7618 125.947 15.7439 125.87 15.7228C125.722 15.6822 125.567 15.6477 125.384 15.6166C125.145 15.5762 124.866 15.5427 124.569 15.5219C124.39 15.5094 124 15.5 124 15.5C124 15.5 123.606 15.5116 123.45 15.5219C123.123 15.5435 122.917 15.5725 122.837 15.5846C122.676 15.6087 122.378 15.6616 122.117 15.7228C121.948 15.7624 121.634 15.8547 121.634 15.8547C121.634 15.8547 121.224 15.9939 121.065 16.0549C120.84 16.141 120.668 16.2236 120.602 16.2555C120.471 16.318 120.28 16.4109 120.085 16.5226C119.973 16.5871 119.705 16.7458 119.461 16.9129C119.222 17.0773 119.006 17.2503 118.961 17.2872C118.79 17.426 118.688 17.5211 118.603 17.5981C118.306 17.8676 118.099 18.1085 117.931 18.2946C117.514 18.7576 117.064 19.5023 117.064 19.5023C117.064 19.5023 116.737 20.1139 116.59 20.4742C116.443 20.8344 116.247 21.5063 116.247 21.5063C116.247 21.5063 116.095 22.1891 116.053 22.5308C116.011 22.8726 116 23.5 116 23.5C116 23.5 116.022 24.1321 116.053 24.4138C116.096 24.8049 116.167 25.146 116.247 25.4693C116.327 25.7883 116.455 26.1957 116.622 26.591C116.672 26.7083 116.751 26.8943 116.847 27.0848C116.911 27.2128 117.064 27.4861 117.064 27.4861C117.064 27.4861 117.296 27.8784 117.402 28.0318C117.654 28.3959 117.835 28.6002 117.875 28.6473C117.983 28.7761 118.115 28.9163 118.19 28.9947C118.34 29.1529 118.728 29.5202 118.728 29.5202C118.728 29.5202 119.248 29.9488 119.547 30.1488C119.845 30.3487 120.467 30.684 120.467 30.684L120.001 32.6659C120.001 32.6659 119.481 32.4311 119.215 32.2867C118.95 32.1423 118.453 31.824 118.453 31.824C118.453 31.824 118.007 31.5149 117.784 31.3383C117.562 31.1618 117.175 30.8089 117.175 30.8089C117.175 30.8089 116.948 30.5905 116.847 30.4869C116.635 30.271 116.461 30.0771 116.336 29.9309C116.06 29.6065 115.674 29.0448 115.674 29.0448C115.674 29.0448 115.465 28.7195 115.381 28.577C115.235 28.3322 115.128 28.1268 115.057 27.9842C114.733 27.3378 114.531 26.7501 114.383 26.2585C114.368 26.2088 114.286 25.9267 114.21 25.5656C114.175 25.4023 114.122 25.057 114.122 25.057C114.122 25.057 114.075 24.7383 114.06 24.6131C114.042 24.4695 114.034 24.366 114.026 24.2664C114.023 24.232 114.019 24.1325 114.013 23.9679C114.01 23.847 114 23.5 114 23.5Z" fill="#A2A2A2"/>
<path fill-rule="evenodd" clip-rule="evenodd" d="M41.7689 13.9207C42.1169 13.6481 42.5462 13.5 42.9882 13.5V13.5C43.4294 13.5 43.858 13.6476 44.2057 13.9192L52.4628 20.3713C53.433 21.1294 54 22.292 54 23.5232V28.5H52V23.5357C52 22.9218 51.7181 22.3419 51.2352 21.9627L43.6176 15.9807C43.2551 15.696 42.7449 15.696 42.3824 15.9807L34.7648 21.9627C34.2819 22.3419 34 22.9218 34 23.5357V31.5C34 32.6046 34.8954 33.5 36 33.5H42.161H43.8072H50C51.1046 33.5 52 32.6046 52 31.5V28.5H54V31.5C54 33.7091 52.2091 35.5 50 35.5H36C33.7909 35.5 32 33.7091 32 31.5V23.5203C32 22.2907 32.5655 21.1295 33.5335 20.3713L41.7689 13.9207Z" fill="#A2A2A2"/>
<rect width="414" height="0.5" fill="#D8D8D8"/>
</svg>
