<svg width="22" height="23" viewBox="0 0 22 23" fill="none" xmlns="http://www.w3.org/2000/svg">
<path id="&#208;&#148;&#208;&#190;&#208;&#188;" fill-rule="evenodd" clip-rule="evenodd" d="M9.7689 0.920677C10.1169 0.648109 10.5462 0.5 10.9882 0.5V0.5C11.4294 0.5 11.858 0.647578 12.2057 0.91925L20.4628 7.37129C21.433 8.12936 22 9.29197 22 10.5232V15.5H20V10.5357C20 9.9218 19.7181 9.3419 19.2352 8.96274L11.6176 2.98071C11.2551 2.69601 10.7449 2.69601 10.3824 2.98071L2.76477 8.96274C2.28194 9.3419 2 9.9218 2 10.5357V18.5C2 19.6046 2.89543 20.5 4 20.5H10.161H11.8072H18C19.1046 20.5 20 19.6046 20 18.5V15.5H22V18.5C22 20.7091 20.2091 22.5 18 22.5H4C1.79086 22.5 0 20.7091 0 18.5V10.5203C0 9.29071 0.565492 8.12947 1.53347 7.37128L9.7689 0.920677Z" fill="#A2A2A2"/>
</svg>
