<?xml version="1.0" encoding="UTF-8"?>
<svg width="12px" height="12px" viewBox="0 0 12 12" version="1.1" xmlns="http://www.w3.org/2000/svg" xmlns:xlink="http://www.w3.org/1999/xlink">
    <title>Кнопка отмена</title>
    <g id="Page-1" stroke="none" stroke-width="1" fill="none" fill-rule="evenodd">
        <g id="Artboard-Copy-89" transform="translate(-386.000000, -60.000000)" fill="#000000">
            <g id="Хэдер" transform="translate(15.928932, 58.928932)">
                <path d="M376.071082,8.50074056 L380.379383,12.8021982 C380.450423,12.8654022 380.508846,12.9093364 380.55465,12.934001 C380.713106,13.0193253 380.887347,13.0660594 380.976674,13.0698264 C381.135056,13.0765057 381.286839,13.0563138 381.413761,13.0072609 C381.621302,12.927051 381.770347,12.7895148 381.832251,12.7133191 C381.888771,12.6437511 381.992109,12.5052951 382.04078,12.3027752 C382.058877,12.2274724 382.070086,12.1354563 382.069032,12.0454655 C382.068166,11.9716025 382.058233,11.9002882 382.043927,11.8306133 C382.026842,11.7474025 381.974512,11.6055958 381.882563,11.476359 C381.842905,11.4206172 381.76702,11.3392329 381.654908,11.232206 L377.497282,7.07119071 L381.676137,2.89230633 C381.783463,2.7875236 381.856775,2.70483633 381.896074,2.64424452 C381.933302,2.58684427 381.967512,2.52664283 381.992755,2.46684209 C382.029604,2.37954432 382.055151,2.27993768 382.061138,2.22935149 C382.072501,2.13333963 382.074918,2.05373417 382.064861,1.96407107 C382.050982,1.84031519 382.010683,1.72681523 381.963641,1.63094719 C381.913422,1.52860451 381.849586,1.44573389 381.794069,1.38671687 C381.763816,1.35455684 381.734935,1.33119593 381.714606,1.31167205 C381.638957,1.23901745 381.461168,1.1257218 381.234602,1.08490654 C381.104998,1.06155864 380.961225,1.06760335 380.806947,1.10418707 C380.728236,1.12285185 380.595757,1.17249747 380.468525,1.26538647 C380.414034,1.30516947 380.33212,1.3822044 380.222784,1.49649126 L376.071082,5.64416427 L371.80006,1.37614566 C371.744509,1.32426408 371.704644,1.28946783 371.680467,1.27175689 C371.588714,1.2045437 371.527035,1.17752828 371.507848,1.16869145 C371.433362,1.13438734 371.350342,1.10462283 371.274216,1.09015367 C371.236275,1.08294225 371.005053,1.04730867 370.784441,1.11652784 C370.699381,1.14321601 370.605724,1.18407849 370.533929,1.23067228 C370.434364,1.29528848 370.367265,1.36736671 370.337751,1.39610324 C370.271905,1.46021475 370.161319,1.61644772 370.106458,1.81462772 C370.087608,1.88272416 370.056257,2.06633394 370.0819,2.23639896 C370.106344,2.39851675 370.183175,2.54374283 370.219512,2.60526799 C370.245745,2.6496856 370.291118,2.70877358 370.355632,2.78253194 L374.64251,7.06983564 L370.336058,11.3801256 C370.259185,11.4767572 370.207851,11.5505658 370.182058,11.6015516 C370.105692,11.7525079 370.075645,11.9042083 370.072221,11.9919786 C370.066031,12.1506565 370.087701,12.3011144 370.141819,12.4309684 C370.173936,12.5080302 370.211345,12.5795174 370.252611,12.638715 C370.308504,12.7188967 370.368652,12.7780552 370.405919,12.8122244 C370.476767,12.8771832 370.625528,12.9845696 370.825572,13.0367125 C370.901555,13.0565179 370.983404,13.0690905 371.072299,13.0690878 C371.142011,13.0690857 371.216873,13.0602706 371.291158,13.0483763 C371.371045,13.035585 371.519085,12.9796938 371.653385,12.8907929 C371.695983,12.8625948 371.752389,12.8133651 371.822603,12.7431037 L376.071082,8.50074056 Z" id="Кнопка-отмена"></path>
            </g>
        </g>
    </g>
</svg>