<svg width="52" height="70" viewBox="0 0 52 70" fill="none" xmlns="http://www.w3.org/2000/svg">
<g id="&#208;&#147;&#208;&#181;&#208;&#190;&#208;&#188;&#208;&#181;&#209;&#130;&#208;&#186;&#208;&#176;">
<path id="Rectangle" d="M28 50C28 48.8954 27.1046 48 26 48C24.8954 48 24 48.8954 24 50V68C24 69.1046 24.8954 70 26 70C27.1046 70 28 69.1046 28 68V50Z" fill="#D00000"/>
<path id="Oval" d="M26 52C40.3594 52 52 40.3594 52 26C52 11.6406 40.3594 0 26 0C11.6406 0 0 11.6406 0 26C0 40.3594 11.6406 52 26 52Z" fill="#FF0000"/>
<path id="&#208;&#154;&#208;&#189;&#208;&#190;&#208;&#191;&#208;&#186;&#208;&#176;-Sos" opacity="0.989735" fill-rule="evenodd" clip-rule="evenodd" d="M16.0019 35H21.8624C21.2598 34.5989 20.8374 34.3152 20.5952 34.1487C20.002 33.7411 19.5665 33.4229 19.2862 33.2201C18.784 32.8566 18.4107 32.5847 18.0936 32.3182C17.6251 31.9242 17.246 31.4914 16.9335 31.0958C16.8106 30.9402 16.6663 30.743 16.5009 30.5043C16.0573 29.8339 15.7105 29.123 15.4604 28.3714C15.4081 28.2141 15.323 27.9335 15.2384 27.5704C15.1448 27.1686 15.0522 26.6608 15.0141 26.0019C15.0071 25.9103 15.0032 25.8402 15.0024 25.7915C14.9971 25.4595 15.0022 25.1827 15.0019 25C14.9996 23.6669 14.9996 22.3336 15.0019 21V19C15.0019 16.7909 16.7928 15 19.0019 15H24.0019V17H19.0019C17.8974 17 17.0019 17.8954 17.0019 19V21L17.0162 26C17.0754 26.5366 17.1386 26.9385 17.2057 27.2055C17.3068 27.6076 17.4463 28.0228 17.6224 28.4078C17.9741 29.1764 18.4591 29.8752 19.0773 30.5043L19.4994 30.8841L19.7145 31.0585C20.0318 31.2971 20.4386 31.5916 20.9349 31.942C21.4312 32.2924 21.9363 32.6417 22.4501 32.9899C23.3218 33.5633 23.9874 33.98 24.4468 34.24C24.5994 34.3264 24.886 34.4878 25.1667 34.6299C25.3913 34.7436 25.6247 34.8471 25.6902 34.8733C25.7527 34.8984 25.8566 34.9363 26.002 34.9872C26.167 34.9296 26.2984 34.88 26.3963 34.8382C26.7866 34.6715 27.3168 34.3929 28.0739 33.9359C28.7657 33.5184 29.4609 33.0555 30.149 32.5827C30.3812 32.4232 30.7311 32.1791 31.1987 31.8506C31.4668 31.6592 31.667 31.5154 31.7992 31.4192C32.3233 31.038 32.8006 30.6469 33.1804 30.2363C33.5084 29.8817 33.7732 29.5069 34.006 29.1169C34.0985 28.9619 34.2255 28.724 34.387 28.4031C34.4629 28.2185 34.5165 28.0841 34.5478 27.9999C34.6421 27.7464 34.7098 27.5305 34.752 27.379C34.8347 27.0815 34.8915 26.7781 34.9365 26.4866C34.9994 26.08 35.0048 25.6549 35.0039 25.1987C35.0035 25.0352 35.0024 24.7806 35.0003 24.4351L35.0019 21V19C35.0019 17.8954 34.1065 17 33.0019 17H25.0019L21.0019 22V23L22.0019 22.9953L22.1275 23.005C22.1705 22.8455 22.2047 22.7298 22.2302 22.658C22.2722 22.5395 22.3236 22.4319 22.3692 22.3307C22.4561 22.1373 22.5612 21.9494 22.6842 21.7671C22.809 21.5923 22.9042 21.4667 22.9697 21.3902C23.1659 21.1611 23.3664 20.9785 23.5212 20.8604C23.6487 20.7632 23.8401 20.6224 24.0701 20.4995C24.1247 20.4704 24.2172 20.4171 24.3086 20.3753C24.3673 20.3485 24.5473 20.2679 24.7416 20.2035C24.9446 20.1363 25.1624 20.0855 25.2434 20.0701C25.5634 20.0094 25.847 19.9931 26.074 20C26.2814 20.0063 26.5462 20.0215 26.8508 20.0894C26.9321 20.1076 27.0497 20.1349 27.1955 20.1802C27.2528 20.1979 27.3486 20.2308 27.483 20.2787C27.7638 20.4058 27.9648 20.5064 28.0859 20.5805C28.4697 20.8151 28.7645 21.0788 28.9584 21.2991C29.1488 21.5156 29.4051 21.8446 29.6139 22.2766C29.6635 22.3791 29.7232 22.5172 29.7912 22.7184C29.8095 22.7726 29.8382 22.8664 29.8771 23H32.0019C32.5542 23 33.0019 23.4477 33.0019 24C33.0019 24.5523 32.5542 25 32.0019 25H30.0019H29.8771C29.8256 25.1765 29.7853 25.304 29.7561 25.3825C29.678 25.5923 29.5901 25.7698 29.5341 25.8781C29.3139 26.3045 29.0433 26.6207 28.8358 26.8278C28.6076 27.0556 28.2455 27.3547 27.7473 27.602C27.6492 27.6508 27.5003 27.7159 27.3137 27.7806C27.2488 27.8032 27.1414 27.8364 26.9917 27.8803L27.2493 25.5596C27.3255 25.4964 27.3805 25.4478 27.4143 25.4138C27.5134 25.314 27.5941 25.2102 27.6412 25.1409C27.8595 24.8196 27.9784 24.4465 27.9975 24.1339C28.0168 23.817 27.9573 23.4753 27.8152 23.1612C27.7855 23.0955 27.7179 22.9576 27.6298 22.8382C27.5201 22.6896 27.3866 22.5604 27.3492 22.526C27.2375 22.4235 27.1396 22.3518 27.0665 22.3055C26.7227 22.0878 26.3514 21.9993 26.0019 22C25.6319 22.0007 25.2386 22.1049 24.8755 22.3504C24.7956 22.4045 24.5978 22.5605 24.4465 22.7441C24.3041 22.9168 24.2065 23.1168 24.1746 23.189C24.0695 23.4275 24.017 23.6715 24.0043 23.9089C23.9907 24.1625 24.0294 24.4269 24.1231 24.683C24.1443 24.741 24.1737 24.8224 24.2214 24.9158C24.2384 24.9491 24.2695 25.0021 24.3145 25.075C24.3722 25.1603 24.4142 25.2194 24.4406 25.2521C24.5329 25.3666 24.6117 25.4383 24.676 25.4946C24.97 25.7523 25.3239 25.9157 25.6652 25.9721C25.9992 26.0272 26.3614 26.0054 26.7192 25.8643C26.7979 25.8333 26.9091 25.788 27.0373 25.7097C27.0696 25.69 27.1141 25.664 27.1741 25.6201C27.1891 25.6091 27.2142 25.5889 27.2493 25.5596L26.9917 27.8803C26.7289 27.9367 26.529 27.9712 26.3923 27.9836C26.1109 28.0091 25.8094 28.0035 25.5422 27.9743C25.0801 27.924 24.6334 27.7913 24.2021 27.5763C24.1213 27.5331 24.0647 27.502 24.0322 27.4831C23.8546 27.379 23.7204 27.2926 23.6296 27.2236C23.4781 27.1085 23.3205 26.97 23.1975 26.8506C23.0507 26.7079 22.9457 26.5861 22.8588 26.4776C22.6964 26.2748 22.5068 25.9958 22.3438 25.6243C22.3059 25.5379 22.2492 25.4032 22.1934 25.2328C22.1777 25.1847 22.1557 25.1071 22.1275 25H22.0019H20.0019C19.4496 25 19.0019 24.5523 19.0019 24C19.0019 23.4476 19.4495 22.9997 20.0019 22.9994L21.0019 22.9988V22L25.0019 17H24.0019V15H33.0019C35.2111 15 37.0019 16.7909 37.0019 19V21V25C37.0049 25.3015 37.0048 25.5233 37.0018 25.6655C36.9991 25.7901 36.9906 25.9685 36.9762 26.2006C36.9383 26.6462 36.8769 27.0685 36.792 27.4676C36.6778 27.9125 36.5852 28.239 36.5139 28.4469C36.3854 28.8219 36.2207 29.1951 36.0801 29.4921C35.8226 30.036 35.4881 30.5685 35.0767 31.0896C34.9045 31.2981 34.777 31.4485 34.6942 31.5408C34.4852 31.774 34.2853 31.9735 34.1089 32.1331C34.0802 32.159 33.9519 32.2845 33.7702 32.4353C33.6483 32.5364 33.5197 32.6324 33.3537 32.7578C32.719 33.2375 31.8675 33.83 31.7 33.9462C31.462 34.1114 31.1256 34.3437 30.7045 34.6264C30.5881 34.7045 30.4001 34.8291 30.1404 35H31.0019H36.0019C36.5542 35 37.0019 35.4477 37.0019 36C37.0019 36.5523 36.5542 37 36.0019 37H16.0019C15.4496 37 15.0019 36.5523 15.0019 36C15.0019 35.4477 15.4496 35 16.0019 35Z" fill="white"/>
</g>
</svg>
